HIERARCHY
ROOT Hips
{
	OFFSET -0.001795 -0.223333 0.028219
	CHANNELS 6 Xposition Yposition Zposition Zrotation Yrotation Xrotation 
	JOINT LeftUpLeg
	{
		OFFSET 0.069520 -0.091406 -0.006815
		CHANNELS 3 Zrotation Yrotation Xrotation
		JOINT LeftLeg
		{
			OFFSET 0.034277 -0.375199 -0.004496
			CHANNELS 3 Zrotation Yrotation Xrotation
			JOINT LeftFoot
			{
				OFFSET -0.013596 -0.397961 -0.043693
				CHANNELS 3 Zrotation Yrotation Xrotation
				JOINT LeftToe
				{
					OFFSET 0.026358 -0.055791 0.119288
					CHANNELS 3 Zrotation Yrotation Xrotation
					End Site
					{
						OFFSET 0.000000 0.000000 0.000000
					}
				}
			}
		}
	}
	JOINT RightUpLeg
	{
		OFFSET -0.067670 -0.090522 -0.004320
		CHANNELS 3 Zrotation Yrotation Xrotation
		JOINT RightLeg
		{
			OFFSET -0.038290 -0.382569 -0.008850
			CHANNELS 3 Zrotation Yrotation Xrotation
			JOINT RightFoot
			{
				OFFSET 0.015774 -0.398415 -0.042312
				CHANNELS 3 Zrotation Yrotation Xrotation
				JOINT RightToe
				{
					OFFSET -0.025372 -0.048144 0.123348
					CHANNELS 3 Zrotation Yrotation Xrotation
					End Site
					{
						OFFSET 0.000000 0.000000 0.000000
					}
				}
			}
		}
	}
	JOINT Spine
	{
		OFFSET -0.002533 0.108963 -0.026696
		CHANNELS 3 Zrotation Yrotation Xrotation
		JOINT Spine1
		{
			OFFSET 0.005487 0.135180 0.001092
			CHANNELS 3 Zrotation Yrotation Xrotation
			JOINT Spine2
			{
				OFFSET 0.001457 0.052922 0.025425
				CHANNELS 3 Zrotation Yrotation Xrotation
				JOINT Neck
				{
					OFFSET -0.002778 0.213870 -0.042857
					CHANNELS 3 Zrotation Yrotation Xrotation
					JOINT Head
					{
						OFFSET 0.005152 0.064970 0.051349
						CHANNELS 3 Zrotation Yrotation Xrotation
						End Site
						{
							OFFSET 0.000000 0.000000 0.000000
						}
					}
				}
				JOINT LeftShoulder
				{
					OFFSET 0.078845 0.121749 -0.034090
					CHANNELS 3 Zrotation Yrotation Xrotation
					JOINT LeftArm
					{
						OFFSET 0.090977 0.030469 -0.008868
						CHANNELS 3 Zrotation Yrotation Xrotation
						JOINT LeftForeArm
						{
							OFFSET 0.259612 -0.012772 -0.027456
							CHANNELS 3 Zrotation Yrotation Xrotation
							JOINT LeftHand
							{
								OFFSET 0.249234 0.008986 -0.001171
								CHANNELS 3 Zrotation Yrotation Xrotation
								End Site
								{
									OFFSET 0.000000 0.000000 0.000000
								}
							}
						}
					}
				}
				JOINT RightShoulder
				{
					OFFSET -0.081759 0.118833 -0.038615
					CHANNELS 3 Zrotation Yrotation Xrotation
					JOINT RightArm
					{
						OFFSET -0.096012 0.032551 -0.009143
						CHANNELS 3 Zrotation Yrotation Xrotation
						JOINT RightForeArm
						{
							OFFSET -0.253742 -0.013329 -0.021401
							CHANNELS 3 Zrotation Yrotation Xrotation
							JOINT RightHand
							{
								OFFSET -0.255298 0.007772 -0.005559
								CHANNELS 3 Zrotation Yrotation Xrotation
								End Site
								{
									OFFSET 0.000000 0.000000 0.000000
								}
							}
						}
					}
				}
			}
		}
	}
}
MOTION
Frames: 13
Frame Time: 0.050000
0.006509 0.957415 -0.026943 -0.654424 -5.196964 -1.820077 5.089654 0.696578 11.912101 -2.977494 0.518720 -12.802750 2.196733 8.955926 18.028982 0.000000 0.000000 0.000000 -4.105784 -0.302367 7.623111 2.742837 -0.360811 -8.079783 -0.880227 -8.906147 17.369226 0.000000 0.000000 0.000000 7.459012 -0.314682 3.037736 -5.513984 1.919875 -22.197995 -0.893956 2.204755 31.718588 5.291351 -1.519873 -28.051654 0.000000 0.000000 0.000000 0.074628 -5.609499 1.962118 -20.709696 -36.074015 0.967141 117.655998 -49.312233 -68.090332 0.000000 0.000000 0.000000 17.882601 -9.034458 -6.015083 57.248126 2.424984 -7.375107 17.409425 33.139478 6.801456 0.000000 0.000000 0.000000 
0.006797 0.957329 -0.027269 -0.509933 -5.199893 -1.816261 4.950090 0.702507 11.778675 -3.041275 0.516793 -12.640329 2.207444 8.959745 17.981930 0.000000 0.000000 0.000000 -4.518317 -0.259781 7.608067 3.167165 -0.370434 -8.123033 -0.870359 -8.888866 17.368604 0.000000 0.000000 0.000000 7.531863 -0.346498 3.325794 -5.833851 2.005055 -22.210337 -0.861755 2.327165 31.575637 5.660741 -1.780342 -27.427842 0.000000 0.000000 0.000000 -0.553389 -5.514031 1.951268 -20.856004 -34.509034 0.767481 113.422834 -48.418028 -62.992097 0.000000 0.000000 0.000000 18.096752 -9.083618 -6.052346 56.799656 2.305235 -7.376428 17.487661 32.942933 6.781811 0.000000 0.000000 0.000000 
0.007038 0.957302 -0.027672 -0.468573 -5.294450 -1.816352 4.912943 0.701226 11.651537 -3.098206 0.515796 -12.447630 2.270292 9.028375 17.930030 0.000000 0.000000 0.000000 -4.766914 -0.233028 7.620628 3.491647 -0.376369 -8.223317 -0.804254 -8.804517 17.414288 0.000000 0.000000 0.000000 7.593931 -0.379589 3.630670 -5.966461 2.031931 -22.513848 -0.888465 2.680510 31.583252 5.919287 -1.928802 -27.026220 0.000000 0.000000 0.000000 -0.933123 -5.315350 1.889354 -21.813671 -33.314634 0.729451 106.889195 -48.834283 -57.644182 0.000000 0.000000 0.000000 18.276582 -9.498067 -6.246684 56.467351 2.289491 -7.351998 17.882716 33.100368 6.970472 0.000000 0.000000 0.000000 
0.007127 0.956917 -0.028070 -0.388268 -5.509507 -1.783658 4.901826 0.696630 11.458427 -3.283649 0.517652 -12.171290 2.407422 9.176264 17.792924 0.000000 0.000000 0.000000 -5.124567 -0.182393 7.417142 3.935401 -0.382679 -8.039201 -0.727972 -8.661771 17.249234 0.000000 0.000000 0.000000 7.652480 -0.403646 3.849449 -6.115519 2.066899 -22.599367 -0.884030 2.891702 31.437305 6.562574 -2.369367 -26.375492 0.000000 0.000000 0.000000 -1.314447 -5.152272 1.839808 -22.086531 -31.685131 0.538305 98.951172 -48.611084 -50.946616 0.000000 0.000000 0.000000 18.224903 -9.474279 -6.208337 56.377536 2.213117 -7.362752 17.979173 33.123771 7.006857 0.000000 0.000000 0.000000 
0.007135 0.956957 -0.028420 -0.316482 -5.920237 -1.807141 4.967044 0.697905 11.358179 -3.611024 0.526551 -11.890814 2.597912 9.408657 17.811108 0.000000 0.000000 0.000000 -5.283193 -0.145959 7.161220 4.019816 -0.379637 -7.704807 -0.563085 -8.407714 17.102262 0.000000 0.000000 0.000000 7.610822 -0.426567 4.106258 -6.168982 2.064712 -23.017224 -0.832070 3.198801 31.573691 6.610929 -2.427830 -26.087456 0.000000 0.000000 0.000000 -2.097843 -4.689077 1.690733 -22.488487 -30.504727 0.392003 89.746907 -48.503083 -44.034926 0.000000 0.000000 0.000000 18.364073 -9.755262 -6.378011 56.043216 2.451110 -7.235354 18.178186 33.113595 7.069078 0.000000 0.000000 0.000000 
0.007123 0.956592 -0.028619 -0.352203 -6.454164 -1.690458 5.019783 0.696481 11.175906 -3.744284 0.535387 -11.668192 2.898886 9.769239 17.728995 0.000000 0.000000 0.000000 -5.426008 -0.105969 6.869608 4.272507 -0.377989 -7.571565 -0.336924 -8.060828 16.945180 0.000000 0.000000 0.000000 7.633076 -0.449711 4.315967 -6.140892 2.043515 -23.218264 -0.816966 3.755687 31.385256 7.192421 -2.767295 -25.774181 0.000000 0.000000 0.000000 -2.458272 -4.343818 1.561827 -22.654563 -28.736870 0.150497 79.552099 -47.972188 -36.940043 0.000000 0.000000 0.000000 18.476204 -9.819443 -6.393407 55.353733 2.468778 -7.125695 17.699406 32.819098 6.849140 0.000000 0.000000 0.000000 
0.007038 0.956643 -0.028516 -0.418112 -7.035894 -1.604456 4.940112 0.719875 11.161492 -3.589992 0.540878 -11.633549 3.200114 10.154959 17.819199 0.000000 0.000000 0.000000 -5.485876 -0.071212 6.498151 4.432199 -0.375153 -7.209688 -0.085034 -7.687620 16.824544 0.000000 0.000000 0.000000 7.544571 -0.471163 4.556089 -6.004445 1.988438 -23.664335 -0.758571 4.139942 31.486978 7.131526 -2.693203 -26.000057 0.000000 0.000000 0.000000 -2.959085 -3.810723 1.370168 -23.021241 -27.109464 -0.079494 68.669440 -47.678049 -30.253899 0.000000 0.000000 0.000000 18.675141 -9.869737 -6.455768 54.726650 3.101878 -6.791740 16.930717 32.304230 6.490248 0.000000 0.000000 0.000000 
0.006881 0.956335 -0.028022 -0.426792 -7.657744 -1.403685 4.811599 0.740319 11.054198 -3.475258 0.547340 -11.611185 3.542544 10.582118 17.846889 0.000000 0.000000 0.000000 -5.512808 -0.040230 6.195321 4.424508 -0.365352 -7.169621 0.171641 -7.299069 16.669145 0.000000 0.000000 0.000000 7.477695 -0.462084 4.465009 -5.830676 1.932311 -23.686774 -0.739125 4.712404 31.244642 7.184658 -2.687548 -25.914706 0.000000 0.000000 0.000000 -3.242442 -3.162828 1.116944 -23.994341 -24.926993 -0.334398 58.562084 -47.523604 -24.709794 0.000000 0.000000 0.000000 18.967882 -9.946700 -6.525094 54.147180 3.184220 -6.664679 16.286479 31.858161 6.195999 0.000000 0.000000 0.000000 
0.006617 0.956207 -0.027195 -0.508668 -8.176927 -1.210822 4.738878 0.759649 11.053045 -3.291739 0.552401 -11.729009 3.819440 10.935975 17.936258 0.000000 0.000000 0.000000 -5.456743 -0.022123 5.929620 4.429629 -0.357915 -7.093217 0.396044 -6.967488 16.579061 0.000000 0.000000 0.000000 7.176036 -0.439845 4.312792 -5.595338 1.860800 -23.840708 -0.436167 5.167162 31.264502 7.088814 -2.610671 -25.851986 0.000000 0.000000 0.000000 -3.852043 -2.604951 0.895324 -24.640342 -22.751669 -0.665692 49.867083 -46.415236 -19.800207 0.000000 0.000000 0.000000 19.347164 -9.902952 -6.544025 53.681835 3.644122 -6.426713 14.856045 31.318652 5.676041 0.000000 0.000000 0.000000 
0.006362 0.955962 -0.026320 -0.534208 -8.484939 -1.208613 4.622399 0.782532 11.103029 -3.085122 0.549239 -11.632668 4.006684 11.167835 17.887536 0.000000 0.000000 0.000000 -5.378777 -0.026825 6.046886 4.310202 -0.349139 -7.274200 0.536391 -6.754201 16.513355 0.000000 0.000000 0.000000 6.933661 -0.444405 4.451486 -5.228951 1.761539 -24.014016 -0.430748 5.453816 31.136641 6.933804 -2.473658 -25.995482 0.000000 0.000000 0.000000 -4.207267 -1.916396 0.615770 -26.236547 -20.785928 -0.939667 41.554141 -44.450032 -15.095074 0.000000 0.000000 0.000000 19.577295 -10.065175 -6.664891 53.729530 3.831737 -6.331924 13.521425 30.301144 5.109571 0.000000 0.000000 0.000000 
0.006136 0.955938 -0.025630 -0.604750 -8.653261 -1.097287 4.646330 0.778663 11.032657 -3.019206 0.548442 -11.579325 4.111741 11.300500 17.887627 0.000000 0.000000 0.000000 -5.363821 -0.017626 5.882962 4.410245 -0.349570 -7.141982 0.606868 -6.644620 16.471724 0.000000 0.000000 0.000000 6.665438 -0.452798 4.616547 -5.217857 1.753724 -24.191340 -0.175677 5.438690 31.140424 6.897192 -2.440983 -26.199650 0.000000 0.000000 0.000000 -4.526974 -1.528537 0.463872 -27.392908 -19.113065 -1.232283 33.976509 -39.802546 -10.398585 0.000000 0.000000 0.000000 19.601459 -10.007891 -6.668283 53.970697 4.168494 -6.201236 11.970441 29.171918 4.484817 0.000000 0.000000 0.000000 
0.006040 0.955758 -0.025187 -0.642836 -8.662958 -0.960961 4.511628 0.780081 10.923318 -2.717148 0.540190 -11.590667 4.163845 11.364037 17.836992 0.000000 0.000000 0.000000 -5.317047 -0.015226 5.744004 4.405249 -0.349398 -7.099662 0.592046 -6.650652 16.412148 0.000000 0.000000 0.000000 6.365407 -0.462356 4.803971 -4.999917 1.697420 -24.344087 -0.225581 5.409501 31.082017 6.675883 -2.269909 -26.549896 0.000000 0.000000 0.000000 -4.624654 -1.229373 0.344293 -29.052688 -17.506682 -1.538261 27.261182 -35.520924 -6.936319 0.000000 0.000000 0.000000 19.694096 -10.213506 -6.820347 54.092247 4.319648 -6.131464 10.946382 27.875125 4.001734 0.000000 0.000000 0.000000 
0.005985 0.955816 -0.024850 -0.673773 -8.491576 -0.868652 4.431783 0.776923 10.875753 -2.485625 0.534210 -11.687856 4.096121 11.281282 17.844642 0.000000 0.000000 0.000000 -5.052840 -0.040370 5.672715 4.023631 -0.344197 -7.061402 0.491703 -6.790910 16.387861 0.000000 0.000000 0.000000 6.112115 -0.459753 4.855637 -4.961286 1.691219 -24.393420 -0.071095 5.441804 31.103951 6.748629 -2.267449 -26.726779 0.000000 0.000000 0.000000 -4.997366 -1.038040 0.250162 -30.399107 -16.136185 -1.842561 22.247386 -32.376694 -4.816421 0.000000 0.000000 0.000000 19.935054 -10.173297 -6.810606 54.252280 4.500656 -6.066742 9.828248 26.529046 3.531822 0.000000 0.000000 0.000000 
